<svg width="160" height="48" viewBox="0 0 160 48" fill="none" xmlns="http://www.w3.org/2000/svg">
<g clip-path="url(#clip0_2_263)">
<path d="M147.259 3.39297e-05H12.7486C12.2583 3.39297e-05 11.7739 3.39298e-05 11.2849 0.00243393C10.8755 0.00483393 10.4694 0.0118059 10.0562 0.0176739C9.15832 0.0271561 8.26261 0.0980454 7.37678 0.229726C6.49221 0.364273 5.63534 0.617933 4.83516 0.982126C4.03596 1.3494 3.30571 1.82663 2.6709 2.39652C2.03276 2.9648 1.50082 3.62165 1.09553 4.34183C0.689129 5.06056 0.407328 5.83076 0.259861 6.62581C0.110992 7.41986 0.0308843 8.22306 0.0202567 9.02821C0.00784864 9.39613 0.0065383 9.76527 0 10.1332V37.8703C0.0065383 38.243 0.00784864 38.6039 0.0202567 38.9766C0.0308876 39.7817 0.110995 40.5849 0.259861 41.3789C0.40692 42.1744 0.688739 42.9451 1.09553 43.6641C1.50063 44.3819 2.03265 45.0361 2.6709 45.6012C3.30331 46.1736 4.03403 46.6512 4.83516 47.0157C5.63533 47.3808 6.49211 47.636 7.37678 47.7726C8.26276 47.9033 9.15838 47.9742 10.0562 47.9848C10.4694 47.993 10.8755 47.9976 11.2849 47.9976C11.7739 48 12.2583 48 12.7486 48H147.259C147.739 48 148.227 48 148.708 47.9976C149.115 47.9976 149.533 47.993 149.941 47.9848C150.837 47.9747 151.731 47.9038 152.615 47.7726C153.502 47.635 154.362 47.3799 155.166 47.0157C155.967 46.651 156.697 46.1735 157.329 45.6012C157.965 45.0339 158.498 44.3802 158.908 43.6641C159.312 42.9445 159.591 42.174 159.736 41.3789C159.885 40.5848 159.968 39.7818 159.984 38.9766C159.99 38.6039 159.99 38.243 159.99 37.8703C160 37.4344 160 37.0008 160 36.5578V11.4434C160 11.0039 160 10.568 159.99 10.1332C159.99 9.76527 159.99 9.39613 159.984 9.02816C159.968 8.22294 159.885 7.41992 159.736 6.62576C159.591 5.83117 159.312 5.06104 158.908 4.34178C158.083 2.89827 156.774 1.72326 155.166 0.982018C154.362 0.618715 153.502 0.365122 152.615 0.229618C151.731 0.0973573 150.837 0.0264432 149.941 0.0175059C149.533 0.0116499 149.115 0.00461793 148.708 0.00227793C148.227 -0.00012207 147.739 -0.00012207 147.259 -0.00012207V3.39297e-05Z" fill="#A6A6A6"/>
<path d="M11.2913 46.95C10.884 46.95 10.4864 46.9453 10.0822 46.9371C9.24493 46.9274 8.40959 46.8619 7.58305 46.7414C6.81235 46.6223 6.06574 46.4007 5.36786 46.0839C4.67638 45.7698 4.0457 45.3579 3.49997 44.864C2.94634 44.376 2.48542 43.8099 2.13547 43.1882C1.78166 42.5625 1.53681 41.8919 1.40943 41.1996C1.27188 40.4557 1.19746 39.7036 1.18681 38.9496C1.17833 38.6965 1.16724 37.8539 1.16724 37.8539V10.1332C1.16724 10.1332 1.17906 9.3035 1.18688 9.05975C1.19707 8.30697 1.27106 7.55597 1.4082 6.81326C1.53581 6.11909 1.78086 5.44649 2.13485 4.81874C2.48351 4.19752 2.94188 3.63102 3.49217 3.1412C4.04185 2.64673 4.67455 2.23271 5.36721 1.91424C6.06348 1.5985 6.80868 1.37847 7.57782 1.26151C8.40707 1.13979 9.24532 1.07398 10.0855 1.06464L11.292 1.04999H148.701L149.922 1.06523C150.755 1.07411 151.585 1.13933 152.407 1.26034C153.184 1.37876 153.937 1.60033 154.641 1.91776C156.029 2.55957 157.158 3.57498 157.87 4.82167C158.219 5.44508 158.46 6.1122 158.586 6.80037C158.725 7.54918 158.802 8.30607 158.818 9.06503C158.822 9.40487 158.822 9.76991 158.822 10.1332C158.833 10.5832 158.833 11.0115 158.833 11.4433V36.5577C158.833 36.9937 158.833 37.4191 158.822 37.848C158.822 38.2382 158.822 38.5957 158.817 38.9636C158.801 39.709 158.725 40.4524 158.588 41.1878C158.464 41.8851 158.22 42.561 157.866 43.1918C157.514 43.8067 157.056 44.3679 156.508 44.8547C155.962 45.3512 155.33 45.7655 154.637 46.0817C153.935 46.4009 153.183 46.6233 152.407 46.7414C151.581 46.8626 150.745 46.928 149.908 46.9371C149.516 46.9453 149.106 46.95 148.708 46.95L147.259 46.9524L11.2913 46.95Z" fill="black"/>
<path d="M33.1179 24.3611C33.1323 23.3595 33.4287 22.3774 33.9796 21.5063C34.5305 20.6352 35.318 19.9032 36.2688 19.3786C35.6648 18.6044 34.868 17.9673 33.9416 17.5178C33.0152 17.0684 31.9849 16.819 30.9323 16.7894C28.687 16.5779 26.5104 17.9952 25.3662 17.9952C24.1999 17.9952 22.4383 16.8104 20.5414 16.8454C19.3144 16.881 18.1186 17.2012 17.0704 17.7749C16.0223 18.3486 15.1577 19.1561 14.5607 20.1189C11.9748 24.137 13.9037 30.0422 16.3808 33.2902C17.6201 34.8806 19.0685 36.6571 20.9638 36.5941C22.8184 36.5251 23.511 35.5327 25.7497 35.5327C27.9676 35.5327 28.6174 36.5941 30.5511 36.5541C32.5412 36.5251 33.7951 34.9566 34.9909 33.3511C35.8814 32.2179 36.5666 30.9654 37.0211 29.6401C35.865 29.2012 34.8783 28.4666 34.1842 27.5278C33.4901 26.5891 33.1193 25.4877 33.1179 24.3611Z" fill="white"/>
<path d="M29.4657 14.6532C30.5507 13.4842 31.0853 11.9816 30.9559 10.4645C29.2981 10.6207 27.7668 11.3318 26.6671 12.456C26.1294 13.0052 25.7176 13.6441 25.4552 14.3363C25.1928 15.0284 25.0849 15.7601 25.1378 16.4897C25.967 16.4973 26.7873 16.336 27.537 16.0179C28.2866 15.6998 28.9461 15.2332 29.4657 14.6532Z" fill="white"/>
<path d="M56.5617 32.5677H50.2328L48.7129 36.5955H46.0322L52.0269 21.6938H54.812L60.8067 36.5955H58.0803L56.5617 32.5677ZM50.8883 30.7091H55.905L53.4319 24.1724H53.3627L50.8883 30.7091Z" fill="white"/>
<path d="M73.753 31.1637C73.753 34.5398 71.7396 36.709 68.7011 36.709C67.9314 36.7451 67.166 36.586 66.4923 36.2498C65.8187 35.9137 65.2642 35.414 64.8923 34.8082H64.8348V40.1894H62.35V25.7309H64.7552V27.5379H64.8009C65.1899 26.9349 65.7538 26.4379 66.4325 26.0997C67.1113 25.7615 67.8795 25.5947 68.6554 25.6172C71.7278 25.6172 73.753 27.7969 73.753 31.1637ZM71.199 31.1637C71.199 28.9641 69.9324 27.518 67.9999 27.518C66.1014 27.518 64.8244 28.9945 64.8244 31.1637C64.8244 33.3527 66.1014 34.8188 67.9999 34.8188C69.9324 34.8188 71.199 33.3832 71.199 31.1637Z" fill="white"/>
<path d="M87.0768 31.1637C87.0768 34.5398 85.0633 36.709 82.0249 36.709C81.2552 36.7451 80.4897 36.586 79.8161 36.2498C79.1425 35.9137 78.588 35.414 78.216 34.8082H78.1585V40.1894H75.6737V25.7308H78.0789V27.5379H78.1246C78.5136 26.9349 79.0775 26.4379 79.7562 26.0997C80.435 25.7615 81.2032 25.5947 81.9791 25.6172C85.0516 25.6172 87.0768 27.7969 87.0768 31.1637ZM84.5227 31.1637C84.5227 28.9641 83.2562 27.518 81.3237 27.518C79.4251 27.518 78.1481 28.9945 78.1481 31.1637C78.1481 33.3527 79.4251 34.8187 81.3237 34.8187C83.2562 34.8187 84.5227 33.3832 84.5227 31.1637H84.5227Z" fill="white"/>
<path d="M95.8827 32.4434C96.0668 33.9211 97.6664 34.8914 99.8522 34.8914C101.947 34.8914 103.453 33.9211 103.453 32.5886C103.453 31.432 102.545 30.7394 100.393 30.2648L98.2409 29.7996C95.192 29.1386 93.7766 27.8589 93.7766 25.7824C93.7766 23.2113 96.2732 21.4453 99.8182 21.4453C103.327 21.4453 105.732 23.2113 105.813 25.7824H103.304C103.154 24.2953 101.785 23.3976 99.7829 23.3976C97.7812 23.3976 96.4115 24.3058 96.4115 25.6277C96.4115 26.6812 97.2864 27.3011 99.4265 27.7757L101.256 28.1788C104.662 28.9019 106.078 30.13 106.078 32.3097C106.078 35.0976 103.604 36.8436 99.668 36.8436C95.9858 36.8436 93.4997 35.1386 93.3391 32.4432L95.8827 32.4434Z" fill="white"/>
<path d="M111.441 23.1599V25.7309H113.743V27.497H111.441V33.4864C111.441 34.4169 111.902 34.8505 112.914 34.8505C113.187 34.8462 113.46 34.829 113.731 34.7989V36.5543C113.276 36.6306 112.814 36.6652 112.351 36.6575C109.9 36.6575 108.944 35.8313 108.944 33.7243V27.497H107.184V25.7309H108.944V23.1599H111.441Z" fill="white"/>
<path d="M115.076 31.1638C115.076 27.7454 117.319 25.5974 120.817 25.5974C124.327 25.5974 126.56 27.7454 126.56 31.1638C126.56 34.5915 124.339 36.7302 120.817 36.7302C117.297 36.7302 115.076 34.5915 115.076 31.1638ZM124.028 31.1638C124.028 28.8188 122.831 27.4349 120.817 27.4349C118.804 27.4349 117.608 28.8294 117.608 31.1638C117.608 33.518 118.804 34.8915 120.817 34.8915C122.831 34.8915 124.028 33.518 124.028 31.1638H124.028Z" fill="white"/>
<path d="M128.608 25.7306H130.978V27.5798H131.036C131.196 27.0023 131.573 26.4919 132.103 26.1344C132.634 25.777 133.285 25.5942 133.948 25.6169C134.234 25.616 134.519 25.644 134.799 25.7001V27.7861C134.437 27.6869 134.06 27.6414 133.682 27.6513C133.321 27.6382 132.962 27.6953 132.627 27.8188C132.293 27.9422 131.993 28.1291 131.747 28.3666C131.501 28.604 131.315 28.8865 131.202 29.1945C131.09 29.5025 131.052 29.8288 131.093 30.1509V36.5951H128.608L128.608 25.7306Z" fill="white"/>
<path d="M146.255 33.4044C145.921 35.3766 143.781 36.7302 141.043 36.7302C137.521 36.7302 135.336 34.6126 135.336 31.2153C135.336 27.8075 137.533 25.5974 140.938 25.5974C144.288 25.5974 146.394 27.6622 146.394 30.9563V31.7204H137.844V31.8552C137.804 32.255 137.86 32.6578 138.008 33.0368C138.155 33.4158 138.39 33.7624 138.698 34.0534C139.006 34.3445 139.38 34.5734 139.794 34.725C140.208 34.8765 140.653 34.9473 141.1 34.9325C141.688 34.9819 142.277 34.8598 142.781 34.5845C143.284 34.3092 143.675 33.8953 143.896 33.4044L146.255 33.4044ZM137.856 30.1618H143.908C143.93 29.8023 143.869 29.4425 143.729 29.1051C143.589 28.7676 143.373 28.4598 143.094 28.2008C142.816 27.9419 142.48 27.7375 142.109 27.6005C141.738 27.4634 141.34 27.3966 140.938 27.4044C140.534 27.4022 140.133 27.472 139.758 27.6097C139.384 27.7474 139.044 27.9503 138.757 28.2066C138.47 28.463 138.243 28.7677 138.088 29.1033C137.934 29.4389 137.855 29.7987 137.856 30.1618V30.1618Z" fill="white"/>
<path d="M50.5766 10.4773C51.0975 10.4438 51.6203 10.5144 52.1071 10.6841C52.594 10.8538 53.0328 11.1184 53.3919 11.4587C53.751 11.7991 54.0215 12.2067 54.1838 12.6523C54.3461 13.0978 54.3963 13.5701 54.3306 14.0351C54.3306 16.3226 52.953 17.6375 50.5766 17.6375H47.6948V10.4773H50.5766ZM48.934 16.6249H50.4382C50.8104 16.6449 51.1829 16.5901 51.5286 16.4646C51.8743 16.339 52.1845 16.1459 52.4365 15.8992C52.6885 15.6525 52.8761 15.3585 52.9855 15.0386C53.095 14.7186 53.1236 14.3808 53.0692 14.0497C53.1196 13.7199 53.0882 13.3842 52.977 13.0666C52.8659 12.749 52.6779 12.4574 52.4264 12.2127C52.1749 11.9679 51.8663 11.7762 51.5226 11.6511C51.1788 11.526 50.8085 11.4707 50.4382 11.4892H48.934V16.6249Z" fill="white"/>
<path d="M55.7305 14.9333C55.6926 14.5782 55.7379 14.2199 55.8634 13.8814C55.9888 13.5429 56.1917 13.2317 56.4591 12.9678C56.7264 12.7038 57.0523 12.4929 57.4158 12.3485C57.7792 12.2042 58.1723 12.1296 58.5698 12.1296C58.9673 12.1296 59.3604 12.2042 59.7238 12.3485C60.0873 12.4929 60.4132 12.7038 60.6805 12.9678C60.9479 13.2317 61.1508 13.5429 61.2763 13.8814C61.4017 14.2199 61.447 14.5782 61.4091 14.9333C61.4477 15.2888 61.403 15.6475 61.2778 15.9866C61.1527 16.3256 60.9499 16.6374 60.6825 16.9019C60.4151 17.1664 60.089 17.3777 59.7251 17.5224C59.3613 17.667 58.9677 17.7417 58.5698 17.7417C58.1719 17.7417 57.7783 17.667 57.4145 17.5224C57.0506 17.3777 56.7245 17.1664 56.4571 16.9019C56.1897 16.6374 55.9869 16.3256 55.8618 15.9866C55.7366 15.6475 55.6919 15.2888 55.7305 14.9333ZM60.1869 14.9333C60.1869 13.762 59.6007 13.077 58.5718 13.077C57.5389 13.077 56.9579 13.762 56.9579 14.9333C56.9579 16.114 57.539 16.7937 58.5718 16.7937C59.6007 16.7936 60.187 16.1093 60.187 14.9333H60.1869Z" fill="white"/>
<path d="M68.9574 17.6374H67.7248L66.4805 13.6577H66.3865L65.1473 17.6374H63.9264L62.2668 12.2339H63.472L64.5506 16.3571H64.6394L65.8772 12.2339H67.0171L68.255 16.3571H68.349L69.4223 12.2339H70.6105L68.9574 17.6374Z" fill="white"/>
<path d="M72.0064 12.2338H73.1502V13.0922H73.239C73.3896 12.7839 73.6436 12.5254 73.9657 12.3528C74.2878 12.1803 74.6618 12.1022 75.0357 12.1295C75.3286 12.1097 75.6228 12.1493 75.8963 12.2455C76.1699 12.3416 76.4159 12.4917 76.616 12.6847C76.8161 12.8777 76.9653 13.1087 77.0525 13.3605C77.1397 13.6122 77.1626 13.8784 77.1196 14.1392V17.6372H75.9314V14.407C75.9314 13.5387 75.511 13.1068 74.6322 13.1068C74.4333 13.0985 74.2347 13.1289 74.0501 13.1959C73.8656 13.2629 73.6993 13.3649 73.5627 13.495C73.4262 13.625 73.3226 13.78 73.259 13.9494C73.1955 14.1188 73.1735 14.2984 73.1946 14.4761V17.6373H72.0063L72.0064 12.2338Z" fill="white"/>
<path d="M79.0131 10.1245H80.2013V17.6374H79.0131V10.1245Z" fill="white"/>
<path d="M81.853 14.9333C81.8152 14.5782 81.8605 14.2199 81.986 13.8814C82.1115 13.5429 82.3144 13.2317 82.5818 12.9677C82.8491 12.7037 83.175 12.4928 83.5385 12.3485C83.9021 12.2041 84.2952 12.1296 84.6927 12.1296C85.0902 12.1296 85.4833 12.2041 85.8468 12.3485C86.2103 12.4928 86.5362 12.7037 86.8035 12.9677C87.0709 13.2317 87.2738 13.5429 87.3993 13.8814C87.5248 14.2199 87.5701 14.5782 87.5323 14.9333C87.5708 15.2888 87.5261 15.6476 87.4009 15.9866C87.2757 16.3257 87.0729 16.6374 86.8055 16.9019C86.538 17.1664 86.2119 17.3778 85.848 17.5224C85.4842 17.667 85.0906 17.7417 84.6927 17.7417C84.2947 17.7417 83.9011 17.667 83.5373 17.5224C83.1734 17.3778 82.8473 17.1664 82.5799 16.9019C82.3124 16.6374 82.1096 16.3257 81.9844 15.9866C81.8592 15.6476 81.8145 15.2888 81.853 14.9333ZM86.3095 14.9333C86.3095 13.762 85.7232 13.0771 84.6943 13.0771C83.6614 13.0771 83.0804 13.762 83.0804 14.9333C83.0804 16.114 83.6615 16.7937 84.6943 16.7937C85.7232 16.7937 86.3095 16.1093 86.3095 14.9333H86.3095Z" fill="white"/>
<path d="M88.7828 16.1093C88.7828 15.1366 89.5898 14.5759 91.0222 14.4962L92.653 14.4118V13.9454C92.653 13.3747 92.2326 13.0524 91.4204 13.0524C90.7571 13.0524 90.2975 13.271 90.1656 13.653H89.0153C89.1367 12.7249 90.1095 12.1296 91.4753 12.1296C92.9847 12.1296 93.836 12.804 93.836 13.9454V17.6374H92.6922V16.878H92.5982C92.4074 17.1504 92.1394 17.3725 91.8217 17.5215C91.504 17.6706 91.1479 17.7413 90.7898 17.7264C90.537 17.75 90.2815 17.7258 90.0399 17.6554C89.7982 17.5849 89.5756 17.4698 89.3865 17.3175C89.1974 17.1651 89.046 16.9789 88.942 16.7708C88.8381 16.5627 88.7838 16.3373 88.7828 16.1093ZM92.653 15.6475V15.1958L91.1828 15.2802C90.3536 15.33 89.9776 15.5831 89.9776 16.0594C89.9776 16.5458 90.4476 16.8288 91.094 16.8288C91.2834 16.846 91.4747 16.8288 91.6566 16.7783C91.8384 16.7278 92.0071 16.645 92.1525 16.5348C92.298 16.4246 92.4173 16.2892 92.5033 16.1368C92.5892 15.9844 92.6402 15.818 92.653 15.6475Z" fill="white"/>
<path d="M95.3977 14.9333C95.3977 13.2259 96.3757 12.1443 97.8969 12.1443C98.2732 12.1287 98.6466 12.2096 98.9736 12.3775C99.3005 12.5453 99.5675 12.7933 99.7432 13.0923H99.832V10.1245H101.02V17.6374H99.8816V16.7837H99.7876C99.5983 17.0807 99.322 17.3255 98.9887 17.4917C98.6555 17.6579 98.2779 17.7391 97.8969 17.7265C96.3653 17.7265 95.3977 16.6448 95.3977 14.9333ZM96.6251 14.9333C96.6251 16.0794 97.2271 16.7691 98.2338 16.7691C99.2353 16.7691 99.8542 16.0695 99.8542 14.938C99.8542 13.8118 99.2288 13.1023 98.2338 13.1023C97.2336 13.1023 96.6251 13.7966 96.6251 14.9333H96.6251Z" fill="white"/>
<path d="M105.937 14.9333C105.899 14.5782 105.944 14.2199 106.07 13.8814C106.195 13.5429 106.398 13.2317 106.665 12.9678C106.933 12.7038 107.258 12.4929 107.622 12.3485C107.985 12.2042 108.379 12.1296 108.776 12.1296C109.173 12.1296 109.567 12.2042 109.93 12.3485C110.293 12.4929 110.619 12.7038 110.887 12.9678C111.154 13.2317 111.357 13.5429 111.482 13.8814C111.608 14.2199 111.653 14.5782 111.615 14.9333C111.654 15.2888 111.609 15.6475 111.484 15.9866C111.359 16.3256 111.156 16.6374 110.889 16.9019C110.621 17.1664 110.295 17.3777 109.931 17.5224C109.567 17.667 109.174 17.7417 108.776 17.7417C108.378 17.7417 107.984 17.667 107.621 17.5224C107.257 17.3777 106.931 17.1664 106.663 16.9019C106.396 16.6374 106.193 16.3256 106.068 15.9866C105.943 15.6475 105.898 15.2888 105.937 14.9333ZM110.393 14.9333C110.393 13.762 109.807 13.077 108.778 13.077C107.745 13.077 107.164 13.762 107.164 14.9333C107.164 16.114 107.745 16.7937 108.778 16.7937C109.807 16.7936 110.393 16.1093 110.393 14.9333Z" fill="white"/>
<path d="M113.209 12.2338H114.353V13.0922H114.442C114.593 12.7839 114.847 12.5254 115.169 12.3528C115.491 12.1803 115.865 12.1022 116.239 12.1295C116.532 12.1097 116.826 12.1493 117.099 12.2455C117.373 12.3416 117.619 12.4917 117.819 12.6847C118.019 12.8777 118.168 13.1087 118.256 13.3605C118.343 13.6122 118.366 13.8784 118.323 14.1392V17.6372H117.134V14.407C117.134 13.5387 116.714 13.1068 115.835 13.1068C115.636 13.0985 115.438 13.1289 115.253 13.1959C115.069 13.2629 114.902 13.3649 114.766 13.495C114.629 13.625 114.526 13.78 114.462 13.9494C114.398 14.1188 114.377 14.2984 114.398 14.4761V17.6373H113.209V12.2338Z" fill="white"/>
<path d="M125.037 10.8887V12.2587H126.341V13.1569H125.037V15.9354C125.037 16.5014 125.297 16.7493 125.888 16.7493C126.039 16.7488 126.191 16.7406 126.341 16.7247V17.6129C126.128 17.6472 125.912 17.6654 125.695 17.6674C124.373 17.6674 123.847 17.2502 123.847 16.2085V13.1569H122.891V12.2586H123.847V10.8887H125.037Z" fill="white"/>
<path d="M127.965 10.1245H129.143V13.1023H129.237C129.395 12.7911 129.656 12.5312 129.984 12.3579C130.313 12.1847 130.693 12.1066 131.072 12.1343C131.364 12.1201 131.655 12.1637 131.926 12.2622C132.196 12.3606 132.439 12.5114 132.637 12.7038C132.835 12.8962 132.983 13.1255 133.071 13.3753C133.159 13.625 133.185 13.8891 133.146 14.1487V17.6374H131.957V14.4118C131.957 13.5487 131.509 13.1116 130.669 13.1116C130.465 13.0966 130.259 13.1218 130.067 13.1854C129.875 13.2491 129.701 13.3497 129.556 13.4802C129.412 13.6107 129.301 13.7679 129.231 13.9409C129.162 14.1138 129.135 14.2984 129.153 14.4815V17.6374H127.965L127.965 10.1245Z" fill="white"/>
<path d="M140.074 16.1785C139.913 16.6723 139.563 17.0995 139.086 17.3853C138.609 17.6711 138.035 17.7973 137.465 17.7418C137.068 17.7512 136.674 17.683 136.31 17.5419C135.946 17.4009 135.62 17.1904 135.355 16.925C135.091 16.6597 134.893 16.3458 134.777 16.0052C134.662 15.6646 134.63 15.3055 134.684 14.9527C134.631 14.5989 134.664 14.2389 134.779 13.8973C134.895 13.5557 135.091 13.2404 135.354 12.9727C135.617 12.705 135.942 12.4912 136.305 12.3458C136.668 12.2003 137.062 12.1266 137.46 12.1297C139.135 12.1297 140.146 13.1569 140.146 14.8537V15.2258H135.894V15.2855C135.876 15.4838 135.903 15.6834 135.976 15.8715C136.048 16.0596 136.164 16.2321 136.315 16.3778C136.465 16.5236 136.649 16.6394 136.852 16.7179C137.056 16.7964 137.276 16.8357 137.498 16.8335C137.782 16.8642 138.07 16.8182 138.325 16.7016C138.58 16.5849 138.791 16.4028 138.93 16.1785L140.074 16.1785ZM135.894 14.4371H138.935C138.95 14.2557 138.923 14.0736 138.855 13.9023C138.787 13.7311 138.679 13.5745 138.54 13.4426C138.4 13.3108 138.231 13.2067 138.044 13.1368C137.857 13.067 137.656 13.0331 137.453 13.0373C137.248 13.035 137.044 13.0696 136.854 13.1391C136.663 13.2087 136.49 13.3117 136.345 13.4422C136.2 13.5726 136.085 13.7279 136.008 13.8987C135.93 14.0696 135.892 14.2527 135.894 14.4371H135.894Z" fill="white"/>
</g>
<defs>
<clipPath id="clip0_2_263">
<rect width="160" height="48" fill="white"/>
</clipPath>
</defs>
</svg>
