<svg width="50" height="50" viewBox="0 0 50 50" fill="none" xmlns="http://www.w3.org/2000/svg">
<circle cx="25" cy="25" r="25" fill="black"/>
<path d="M33.6041 17.7991C33.6041 18.7927 32.7983 19.5983 31.8044 19.5983C30.8106 19.5983 30.0049 18.7927 30.0049 17.7991C30.0049 16.8054 30.8106 16 31.8044 16C32.7983 16 33.6041 16.8054 33.6041 17.7991Z" fill="white"/>
<path d="M24.0023 19C20.1371 19 17.001 22.1353 17.001 26C17.001 29.8648 20.1371 33 24.0023 33C27.8678 33 31.0037 29.8648 31.0037 26C31.0037 22.1353 27.8678 19 24.0023 19ZM24.0023 30.5408C21.4948 30.5408 19.4607 28.5073 19.4607 26C19.4607 23.4927 21.4948 21.4593 24.0023 21.4593C26.5101 21.4593 28.544 23.4927 28.544 26C28.544 28.5073 26.5101 30.5408 24.0023 30.5408Z" fill="white"/>
<path d="M39.9238 18.8201C39.8535 17.2261 39.5956 16.1302 39.2263 15.1806C38.8453 14.1727 38.2591 13.2702 37.4912 12.52C36.7408 11.7582 35.8323 11.1662 34.8358 10.7912C33.8805 10.4219 32.7902 10.1641 31.1958 10.0939C29.5896 10.0176 29.0797 10 25.0058 10C20.932 10 20.4221 10.0176 18.8218 10.0879C17.2275 10.1582 16.1314 10.4162 15.1818 10.7852C14.1735 11.1662 13.2708 11.7522 12.5205 12.52C11.7585 13.2702 11.1666 14.1786 10.7913 15.1749C10.422 16.1302 10.1642 17.2201 10.0939 18.8142C10.0176 20.4201 10 20.9299 10 25.003C10 29.076 10.0176 29.5859 10.0879 31.1858C10.1582 32.7799 10.4163 33.8757 10.7856 34.8253C11.1666 35.8333 11.7585 36.7357 12.5205 37.4859C13.2708 38.2478 14.1794 38.8398 15.1759 39.2148C16.1314 39.584 17.2215 39.8418 18.8161 39.9121C20.4161 39.9826 20.9263 40 25.0001 40C29.074 40 29.5839 39.9826 31.1842 39.9121C32.7785 39.8418 33.8746 39.584 34.8241 39.2148C36.8407 38.4353 38.435 36.8413 39.2146 34.8253C39.5837 33.87 39.8418 32.7799 39.9121 31.1858C39.9824 29.5859 40 29.076 40 25.003C40 20.9299 39.994 20.4201 39.9238 18.8201ZM37.2217 31.0686C37.1571 32.5338 36.911 33.3249 36.7058 33.8524C36.2016 35.1593 35.1641 36.1966 33.8569 36.7007C33.3294 36.9058 32.5323 37.1519 31.0727 37.2162C29.49 37.2868 29.0153 37.3042 25.0118 37.3042C21.0082 37.3042 20.5276 37.2868 18.9507 37.2162C17.4853 37.1519 16.694 36.9058 16.1664 36.7007C15.5159 36.4603 14.9238 36.0794 14.4432 35.5812C13.9449 35.0948 13.5639 34.5087 13.3235 33.8583C13.1184 33.3309 12.8722 32.5338 12.8079 31.0746C12.7373 29.4922 12.7199 29.0174 12.7199 25.0147C12.7199 21.0119 12.7373 20.5313 12.8079 18.9549C12.8722 17.4898 13.1184 16.6986 13.3235 16.1712C13.5639 15.5206 13.9449 14.9288 14.4491 14.4481C14.9355 13.9499 15.5216 13.569 16.1724 13.3288C16.6999 13.1237 17.4972 12.8776 18.9567 12.8131C20.5393 12.7428 21.0142 12.7252 25.0175 12.7252C29.027 12.7252 29.5017 12.7428 31.0786 12.8131C32.544 12.8776 33.3353 13.1237 33.8629 13.3288C34.5134 13.569 35.1055 13.9499 35.5861 14.4481C36.0844 14.9345 36.4654 15.5206 36.7058 16.1712C36.911 16.6986 37.1571 17.4955 37.2217 18.9549C37.292 20.5373 37.3096 21.0119 37.3096 25.0147C37.3096 29.0174 37.292 29.4863 37.2217 31.0686Z" fill="white"/>
</svg>
