<svg width="36" height="37" viewBox="0 0 36 37" fill="none" xmlns="http://www.w3.org/2000/svg">
<path d="M35.4526 33.7011L26.578 24.5424C28.8598 21.8508 30.1101 18.4643 30.1101 14.9387C30.1101 6.70165 23.3563 0 15.055 0C6.75382 0 0 6.70165 0 14.9387C0 23.1758 6.75382 29.8775 15.055 29.8775C18.1714 29.8775 21.1412 28.9448 23.6803 27.1742L32.6223 36.4025C32.9961 36.7876 33.4988 37 34.0375 37C34.5474 37 35.0311 36.8071 35.3983 36.4564C36.1786 35.7114 36.2034 34.476 35.4526 33.7011ZM15.055 3.89706C21.1909 3.89706 26.1827 8.85023 26.1827 14.9387C26.1827 21.0272 21.1909 25.9804 15.055 25.9804C8.91913 25.9804 3.9274 21.0272 3.9274 14.9387C3.9274 8.85023 8.91913 3.89706 15.055 3.89706Z" fill="#707070"/>
</svg>
