<svg width="50" height="50" viewBox="0 0 50 50" fill="none" xmlns="http://www.w3.org/2000/svg">
<circle cx="25" cy="25" r="25" fill="black"/>
<g clip-path="url(#clip0_2_172)">
<path d="M40 16.033C38.1129 16.1199 38.1541 16.1128 37.9407 16.1307L39.0584 12.9389C39.0584 12.9389 35.5698 14.2223 34.6854 14.4518C32.3627 12.3642 28.9102 12.272 26.442 13.789C24.4207 15.0316 23.3358 17.1655 23.6977 19.6596C19.7639 19.1137 16.4494 17.249 13.8326 14.1055L13.005 13.1115L12.3866 14.2472C11.6049 15.6823 11.3454 17.3232 11.6555 18.8674C11.7828 19.501 11.9991 20.1052 12.2987 20.671L11.5887 20.3959L11.5044 21.5822C11.4191 22.7873 11.8203 24.194 12.5779 25.3448C12.7912 25.6689 13.0659 26.0248 13.414 26.3759L13.0471 26.3196L13.4948 27.6789C14.0833 29.4649 15.3055 30.8466 16.8916 31.6148C15.3075 32.287 14.0279 32.7159 11.9244 33.4078L10 34.0405L11.7775 35.0123C12.4552 35.3829 14.85 36.6204 17.2162 36.9917C22.4759 37.8166 28.3977 37.1448 32.3844 33.5543C35.7423 30.5301 36.8442 26.2283 36.6153 21.7516C36.5807 21.0738 36.7664 20.427 37.1381 19.9306C37.8826 18.9365 39.9954 16.0396 40 16.033ZM35.7325 18.8777C35.1152 19.7019 34.806 20.7546 34.8614 21.8413C35.0923 26.3569 33.8637 29.8588 31.2093 32.2492C28.1087 35.0418 23.1074 36.1379 17.4883 35.2565C16.4707 35.097 15.419 34.7397 14.5486 34.3829C16.3121 33.7761 17.6739 33.2353 19.8733 32.1943L22.9435 30.7411L19.5538 30.5242C17.9301 30.4202 16.5781 29.6333 15.747 28.3557C16.1883 28.3301 16.6138 28.2587 17.0374 28.1406L20.2704 27.2402L17.0104 26.4418C15.4263 26.0539 14.5234 25.1061 14.0448 24.3791C13.7305 23.9015 13.5252 23.4121 13.4021 22.961C13.7289 23.0486 14.11 23.1111 14.7246 23.172L17.7419 23.4705L15.3513 21.6055C13.6287 20.262 12.9384 18.2435 13.4444 16.303C18.8204 21.8791 25.1325 21.46 25.7679 21.6074C25.628 20.249 25.6244 20.2458 25.5878 20.1164C24.7741 17.2401 26.5573 15.7796 27.3616 15.2852C29.0416 14.2527 31.7083 14.0971 33.5554 15.7981C33.9543 16.1652 34.4938 16.3097 34.9987 16.1842C35.4519 16.0716 35.8238 15.9524 36.188 15.8226L35.4299 17.9874L36.3976 17.9881C36.215 18.233 35.9959 18.5262 35.7325 18.8777Z" fill="white"/>
</g>
<defs>
<clipPath id="clip0_2_172">
<rect width="30" height="30" fill="white" transform="translate(10 10)"/>
</clipPath>
</defs>
</svg>
