<svg width="50" height="50" viewBox="0 0 50 50" fill="none" xmlns="http://www.w3.org/2000/svg">
<circle cx="25" cy="25" r="25" fill="black"/>
<g clip-path="url(#clip0_2_160)">
<path d="M31.8837 27.8837L31.8724 27.9775C29.1237 26.6075 28.8362 26.425 28.4812 26.9575C28.2349 27.3262 27.5174 28.1625 27.3012 28.41C27.0824 28.6537 26.8649 28.6725 26.4937 28.5037C26.1187 28.3162 24.9149 27.9225 23.4899 26.6475C22.3799 25.6537 21.6349 24.435 21.4149 24.06C21.0487 23.4275 21.8149 23.3375 22.5124 22.0175C22.6374 21.755 22.5737 21.5487 22.4812 21.3625C22.3874 21.175 21.6412 19.3375 21.3287 18.605C21.0287 17.875 20.7199 17.9675 20.4887 17.9675C19.7687 17.905 19.2424 17.915 18.7787 18.3975C16.7612 20.615 17.2699 22.9025 18.9962 25.335C22.3887 29.775 24.1962 30.5925 27.5012 31.7275C28.3937 32.0112 29.2074 31.9712 29.8512 31.8787C30.5687 31.765 32.0599 30.9775 32.3712 30.0962C32.6899 29.215 32.6899 28.4837 32.5962 28.315C32.5037 28.1462 32.2587 28.0525 31.8837 27.8837Z" fill="white"/>
<path d="M35.65 14.3113C26.0387 5.02005 10.1325 11.7588 10.1262 24.8663C10.1262 27.4863 10.8125 30.0413 12.12 32.2976L10 40.0001L17.9187 37.9351C27.8 43.2726 39.995 36.1851 40 24.8738C40 20.9038 38.45 17.1676 35.6312 14.3601L35.65 14.3113ZM37.5025 24.8326C37.495 34.3738 27.0212 40.3326 18.7375 35.4626L18.2875 35.1951L13.6 36.4138L14.8562 31.8576L14.5575 31.3888C9.4025 23.1826 15.325 12.4576 25.09 12.4576C28.4075 12.4576 31.5212 13.7513 33.8663 16.0951C36.21 18.4188 37.5025 21.5326 37.5025 24.8326Z" fill="white"/>
</g>
<defs>
<clipPath id="clip0_2_160">
<rect width="30" height="30" fill="white" transform="translate(10 10)"/>
</clipPath>
</defs>
</svg>
